<svg width="81" height="54" viewBox="0 0 81 54" fill="none" xmlns="http://www.w3.org/2000/svg">
<path d="M23.2201 0.432107C28.1641 0.432107 32.3641 1.45211 35.8201 3.49211C39.3001 5.53211 41.9521 8.52011 43.7761 12.4561C45.6241 16.3681 46.5481 21.1681 46.5481 26.8561C46.5481 32.3281 45.5761 37.0201 43.6321 40.9321C41.6881 44.8201 38.9521 47.8081 35.4241 49.8961C31.9201 51.9841 27.7681 53.0281 22.9681 53.0281C18.0721 53.0281 13.9081 51.9961 10.4761 49.9321C7.06806 47.8681 4.46406 44.8561 2.66406 40.8961C0.888063 36.9121 6.25998e-05 32.0521 6.25998e-05 26.3161C6.25998e-05 21.0361 0.948063 16.4641 2.84406 12.6001C4.76406 8.73611 7.46406 5.74811 10.9441 3.63611C14.4241 1.50011 18.5161 0.432107 23.2201 0.432107ZM30.0601 29.2681C30.0601 22.9321 29.8081 17.8561 29.3041 14.0401C28.8241 10.2001 28.0441 7.41611 26.9641 5.68811C25.9081 3.96011 24.5161 3.09611 22.7881 3.09611C21.3241 3.09611 20.1241 3.76811 19.1881 5.11211C18.2521 6.45611 17.5561 8.67611 17.1001 11.7721C16.6681 14.8441 16.4521 18.9841 16.4521 24.1921C16.4521 30.4561 16.7041 35.5081 17.2081 39.3481C17.7121 43.1881 18.4921 45.9841 19.5481 47.7361C20.6281 49.4881 22.0321 50.3641 23.7601 50.3641C25.2001 50.3641 26.3881 49.7041 27.3241 48.3841C28.2601 47.0641 28.9441 44.8681 29.3761 41.7961C29.8321 38.7001 30.0601 34.5241 30.0601 29.2681ZM52.6872 7.20011C52.0152 7.20011 51.5232 7.04411 51.2112 6.73211C50.8992 6.42011 50.7432 6.01211 50.7432 5.50811C50.7432 5.02811 50.9232 4.63211 51.2832 4.32011C51.6672 3.98411 52.1712 3.81611 52.7952 3.81611H56.3592C59.6472 3.81611 62.2752 3.57611 64.2432 3.09611C66.2112 2.59211 68.0112 1.78811 69.6432 0.684106C70.0272 0.444106 70.3872 0.276107 70.7232 0.180108C71.0592 0.0601082 71.4192 0.000108242 71.8032 0.000108242C73.0032 0.000108242 73.6032 0.600108 73.6032 1.80011V44.9281C73.6032 45.8881 73.7952 46.6201 74.1792 47.1241C74.5632 47.6281 75.1032 47.9641 75.7992 48.1321L78.9672 48.8881C79.8552 49.1041 80.2992 49.6201 80.2992 50.4361C80.2992 50.8681 80.1552 51.2281 79.8672 51.5161C79.5792 51.7801 79.1472 51.9121 78.5712 51.9121H52.1472C51.4992 51.9121 51.0072 51.7801 50.6712 51.5161C50.3592 51.2281 50.2032 50.8561 50.2032 50.4001C50.2032 49.6081 50.7312 49.0921 51.7872 48.8521L54.9912 48.1321C55.7592 47.9641 56.3592 47.6401 56.7912 47.1601C57.2472 46.6561 57.4752 45.9121 57.4752 44.9281V9.57611C57.4752 8.68811 57.3192 8.07611 57.0072 7.74011C56.7192 7.38011 56.2512 7.20011 55.6032 7.20011H52.6872Z" fill="#FDD6BA"/>
</svg>
