<svg width="93" height="53" viewBox="0 0 93 53" fill="none" xmlns="http://www.w3.org/2000/svg">
<path d="M23.2201 0.0361109C28.1641 0.0361109 32.3641 1.05611 35.8201 3.09611C39.3001 5.13611 41.9521 8.12411 43.7761 12.0601C45.6241 15.9721 46.5481 20.7721 46.5481 26.4601C46.5481 31.9321 45.5761 36.6241 43.6321 40.5361C41.6881 44.4241 38.9521 47.4121 35.4241 49.5001C31.9201 51.5881 27.7681 52.6321 22.9681 52.6321C18.0721 52.6321 13.9081 51.6001 10.4761 49.5361C7.06806 47.4721 4.46406 44.4601 2.66406 40.5001C0.888063 36.5161 6.25998e-05 31.6561 6.25998e-05 25.9201C6.25998e-05 20.6401 0.948063 16.0681 2.84406 12.2041C4.76406 8.34011 7.46406 5.35211 10.9441 3.24011C14.4241 1.10411 18.5161 0.0361109 23.2201 0.0361109ZM30.0601 28.8721C30.0601 22.5361 29.8081 17.4601 29.3041 13.6441C28.8241 9.80411 28.0441 7.02011 26.9641 5.29211C25.9081 3.56411 24.5161 2.70011 22.7881 2.70011C21.3241 2.70011 20.1241 3.37211 19.1881 4.71611C18.2521 6.06011 17.5561 8.28011 17.1001 11.3761C16.6681 14.4481 16.4521 18.5881 16.4521 23.7961C16.4521 30.0601 16.7041 35.1121 17.2081 38.9521C17.7121 42.7921 18.4921 45.5881 19.5481 47.3401C20.6281 49.0921 22.0321 49.9681 23.7601 49.9681C25.2001 49.9681 26.3881 49.3081 27.3241 47.9881C28.2601 46.6681 28.9441 44.4721 29.3761 41.4001C29.8321 38.3041 30.0601 34.1281 30.0601 28.8721ZM56.7192 38.6641L55.3152 37.4761L61.5792 34.4161C64.0752 33.1921 66.2112 31.6681 67.9872 29.8441C69.7872 28.0201 71.1672 25.8481 72.1272 23.3281C73.1112 20.7841 73.6032 17.8681 73.6032 14.5801C73.6032 11.4841 73.4112 9.04811 73.0272 7.27211C72.6672 5.47211 72.1632 4.18811 71.5152 3.42011C70.8672 2.62811 70.1112 2.23211 69.2472 2.23211C67.9512 2.23211 66.9912 2.77211 66.3672 3.85211C65.7672 4.90811 65.4672 6.48011 65.4672 8.56811V14.0761C65.4672 16.3801 64.7952 18.2041 63.4512 19.5481C62.1312 20.8921 60.3912 21.5641 58.2312 21.5641C56.0712 21.5641 54.3552 20.9281 53.0832 19.6561C51.8112 18.3841 51.1752 16.5721 51.1752 14.2201C51.1752 11.7961 51.9072 9.50411 53.3712 7.34411C54.8352 5.18411 57.0792 3.42011 60.1032 2.05211C63.1272 0.68411 66.9912 0.000109196 71.6952 0.000109196C75.8472 0.000109196 79.3032 0.60011 82.0632 1.80011C84.8232 2.97611 86.8752 4.62011 88.2192 6.73211C89.5872 8.82011 90.2712 11.2321 90.2712 13.9681C90.2712 16.4881 89.5512 18.8281 88.1112 20.9881C86.6952 23.1481 84.4872 25.2121 81.4872 27.1801C78.4872 29.1241 74.6352 31.0921 69.9312 33.0841L56.7192 38.6641ZM50.1312 45.6121C50.1312 42.5401 51.3192 40.1281 53.6952 38.3761C56.0712 36.6001 59.5632 35.7121 64.1712 35.7121C65.9232 35.7121 67.6152 35.8321 69.2472 36.0721C70.8792 36.3121 72.4752 36.5881 74.0352 36.9001C75.6192 37.1881 77.1792 37.4521 78.7152 37.6921C80.2752 37.9321 81.8352 38.0521 83.3952 38.0521C85.1952 38.0521 86.5992 37.7041 87.6072 37.0081C88.6392 36.3121 89.5152 35.1841 90.2352 33.6241C90.4752 33.2161 90.7272 32.9401 90.9912 32.7961C91.2552 32.6281 91.5312 32.5681 91.8192 32.6161C92.2032 32.6401 92.4792 32.8201 92.6472 33.1561C92.8392 33.4681 92.9112 33.9601 92.8632 34.6321C92.5512 39.1201 91.8312 42.6841 90.7032 45.3241C89.5752 47.9401 88.0872 49.8121 86.2392 50.9401C84.3912 52.0681 82.2432 52.6321 79.7952 52.6321C77.7552 52.6321 75.9912 52.3081 74.5032 51.6601C73.0392 51.0121 71.7312 49.8841 70.5792 48.2761C69.4512 46.6681 68.3952 44.4241 67.4112 41.5441C67.0512 40.4641 66.7392 39.7681 66.4752 39.4561C66.2112 39.1201 65.8872 38.9521 65.5032 38.9521C65.0712 38.9521 64.7112 39.2281 64.4232 39.7801C64.1352 40.3081 63.9312 41.2801 63.8112 42.6961C63.6192 45.2641 63.1872 47.2681 62.5152 48.7081C61.8432 50.1481 60.9552 51.1561 59.8512 51.7321C58.7472 52.3321 57.4512 52.6321 55.9632 52.6321C54.2112 52.6321 52.7952 51.9841 51.7152 50.6881C50.6592 49.3921 50.1312 47.7001 50.1312 45.6121Z" fill="#FDD6BA"/>
</svg>
