<svg width="91" height="53" viewBox="0 0 91 53" fill="none" xmlns="http://www.w3.org/2000/svg">
<path d="M23.2201 -2.19345e-05C28.1641 -2.19345e-05 32.3641 1.01998 35.8201 3.05998C39.3001 5.09998 41.9521 8.08798 43.7761 12.024C45.6241 15.936 46.5481 20.736 46.5481 26.424C46.5481 31.896 45.5761 36.588 43.6321 40.5C41.6881 44.388 38.9521 47.376 35.4241 49.464C31.9201 51.552 27.7681 52.596 22.9681 52.596C18.0721 52.596 13.9081 51.564 10.4761 49.5C7.06806 47.436 4.46406 44.424 2.66406 40.464C0.888063 36.48 6.25998e-05 31.62 6.25998e-05 25.884C6.25998e-05 20.604 0.948063 16.032 2.84406 12.168C4.76406 8.30398 7.46406 5.31598 10.9441 3.20398C14.4241 1.06798 18.5161 -2.19345e-05 23.2201 -2.19345e-05ZM30.0601 28.836C30.0601 22.5 29.8081 17.424 29.3041 13.608C28.8241 9.76798 28.0441 6.98398 26.9641 5.25598C25.9081 3.52798 24.5161 2.66398 22.7881 2.66398C21.3241 2.66398 20.1241 3.33598 19.1881 4.67998C18.2521 6.02398 17.5561 8.24398 17.1001 11.34C16.6681 14.412 16.4521 18.552 16.4521 23.76C16.4521 30.024 16.7041 35.076 17.2081 38.916C17.7121 42.756 18.4921 45.552 19.5481 47.304C20.6281 49.056 22.0321 49.932 23.7601 49.932C25.2001 49.932 26.3881 49.272 27.3241 47.952C28.2601 46.632 28.9441 44.436 29.3761 41.364C29.8321 38.268 30.0601 34.092 30.0601 28.836ZM67.2672 25.2L66.5112 24.372C66.8232 24.276 67.1952 24.204 67.6272 24.156C68.0832 24.108 68.5512 24.072 69.0312 24.048C69.5352 24 69.9792 23.976 70.3632 23.976C74.1792 23.976 77.5032 24.468 80.3352 25.452C83.1672 26.436 85.3632 27.876 86.9232 29.772C88.4832 31.644 89.2632 33.96 89.2632 36.72C89.2632 39.936 88.4232 42.732 86.7432 45.108C85.0872 47.484 82.7352 49.332 79.6872 50.652C76.6392 51.948 73.0392 52.596 68.8872 52.596C64.8552 52.596 61.4712 52.08 58.7352 51.048C55.9992 50.016 53.9352 48.624 52.5432 46.872C51.1512 45.096 50.4552 43.104 50.4552 40.896C50.4552 38.616 51.1632 36.732 52.5792 35.244C54.0192 33.756 55.7712 33.012 57.8352 33.012C59.8752 33.012 61.4952 33.636 62.6952 34.884C63.8952 36.108 64.4952 37.716 64.4952 39.708V44.316C64.4952 45.972 64.8912 47.388 65.6832 48.564C66.4752 49.716 67.5312 50.292 68.8512 50.292C70.0032 50.292 70.9872 49.944 71.8032 49.248C72.6192 48.552 73.2432 47.388 73.6752 45.756C74.1312 44.1 74.3592 41.844 74.3592 38.988C74.3592 34.932 73.7472 31.968 72.5232 30.096C71.2992 28.2 69.6672 27.252 67.6272 27.252H65.3592C64.7592 27.252 64.3032 27.12 63.9912 26.856C63.6792 26.568 63.5232 26.172 63.5232 25.668C63.5232 25.284 63.6192 24.936 63.8112 24.624C64.0272 24.312 64.3632 23.952 64.8192 23.544L79.1112 10.62L79.3632 13.176H59.7792C59.0112 13.176 58.4112 13.332 57.9792 13.644C57.5472 13.932 57.2352 14.4 57.0432 15.048L55.8912 18.936C55.7952 19.368 55.6032 19.716 55.3152 19.98C55.0272 20.22 54.6192 20.34 54.0912 20.34C53.5872 20.34 53.1672 20.196 52.8312 19.908C52.5192 19.596 52.3872 19.164 52.4352 18.612L54.0552 3.56398C54.1272 2.79598 54.4032 2.19598 54.8832 1.76398C55.3872 1.30798 56.0472 1.07998 56.8632 1.07998H87.8952C88.7352 1.07998 89.3472 1.19998 89.7312 1.43998C90.1152 1.65598 90.3072 2.01598 90.3072 2.51998C90.3072 2.83198 90.1872 3.20398 89.9472 3.63598C89.7072 4.04398 89.2152 4.59598 88.4712 5.29198L67.2672 25.2Z" fill="#FDD6BA"/>
</svg>
