<svg width="71" height="72" viewBox="0 0 71 72" fill="none" xmlns="http://www.w3.org/2000/svg">
<path d="M8.07788 8.19409C20.5115 -4.42829 42.9293 -2.219 58.0476 13.1033C65.3073 20.4653 69.8381 29.7448 70.8054 39.2263C71.7949 48.8833 68.9814 57.6047 62.8933 63.7742C57.5995 69.1425 50.4103 71.9998 42.3699 71.9998C41.1586 71.9997 39.9291 71.932 38.6824 71.8015C29.3329 70.8204 20.1831 66.2259 12.9236 58.864C-2.19026 43.537 -4.36461 20.8122 8.07788 8.19409ZM8.85425 8.97729C10.5583 23.5346 17.8492 35.9544 32.5281 40.0359C38.3589 41.6559 43.7282 43.1726 48.6804 47.0066C54.3515 51.3986 57.64 57.5279 62.1218 62.991C60.4888 48.6584 53.3837 36.3464 39.0242 32.1208C32.4836 30.1994 26.529 28.5564 21.1199 24.0476C16.0435 19.8131 12.9899 14.0353 8.85425 8.97729Z" fill="#FDD6BA"/>
</svg>
