<svg width="41" height="50" viewBox="0 0 41 50" fill="none" xmlns="http://www.w3.org/2000/svg">
<path d="M19.8262 0.0319824C21.6539 -0.254129 21.071 1.44887 20.2793 2.26831C19.3598 3.23213 17.873 3.65962 17.3369 5.79565C19.698 5.79565 21.7375 5.84309 23.7764 5.78198C26.3958 5.70422 26.8399 6.6567 25.3955 8.77612C24.6844 9.82612 24.2786 11.0955 23.498 12.0789C21.9843 13.9731 22.018 15.2678 24.501 16.1511C25.126 16.3733 25.9315 16.9291 26.0898 17.4929C27.6787 23.1233 33.9373 25.8038 34.9736 31.698C35.1375 32.6202 34.9652 33.1012 36.2373 32.9929C38.0706 32.8207 40.2399 32.7986 40.751 35.1375C41.2426 37.368 39.651 38.7878 37.9482 39.9656C37.6152 40.1933 37.3957 40.5734 37.0654 40.9675C37.3793 42.3369 39.437 41.0431 39.4512 42.3982C39.4623 43.5259 38.2541 44.051 37.418 44.3093C33.1541 45.6343 28.6623 46.0847 24.29 45.9958C20.2624 45.907 17.1013 48.1924 13.3682 48.7341C12.3071 48.8925 11.3342 49.4149 9.60645 48.7205C13.6064 47.2677 14.2237 42.0961 20.0098 42.3406C18.2184 41.5962 17.4682 41.2567 16.6934 40.9734C14.3629 40.1317 14.0513 38.4957 15.79 36.6013C16.7706 35.5375 17.4485 34.3955 15.2266 33.9343C13.1239 33.501 15.5037 32.2653 14.8125 31.3181C14.4403 30.807 15.6626 30.6628 16.3682 30.7517C18.457 31.0212 21.4097 31.3815 20.5986 28.3289C20.0764 26.3733 19.7702 22.4573 15.9092 22.9656C12.2541 23.446 11.1067 22.5398 13.3926 19.2234C12.0452 18.6213 9.20131 21.7812 9.8457 17.5593C9.87034 17.3844 9.52708 16.9659 9.45703 16.9841C8.61537 17.2508 7.71539 19.3149 6.99316 17.4343C6.28226 15.5845 9.43184 16.4787 9.50684 14.2371C9.35873 13.7598 6.67389 14.5287 7.62891 13.2097C9.82335 10.1819 7.74579 9.08999 5.86523 7.61499C5.52646 7.35115 5.86822 6.89034 5.90723 6.46265C5.90723 6.45431 5.90137 6.43973 5.90137 6.4314C5.90964 6.30104 5.89578 6.16786 5.81543 6.04858C5.72654 5.98747 5.65124 5.95637 5.55957 5.89526H5.56836C5.57672 5.88147 5.5904 5.86468 5.59863 5.84546C5.62081 5.83716 5.64581 5.83131 5.66797 5.823C5.76515 5.89241 5.7676 5.96807 5.82031 6.04858C8.28403 7.5957 9.6621 6.76518 10.626 4.60718C10.7593 4.29607 10.8877 3.95965 11.0127 3.60132C12.5155 -0.812488 16.7012 0.529139 19.8262 0.0319824ZM6.97363 20.0593C9.69853 20.2094 9.82946 22.7515 10.9072 24.1042C10.8155 25.9372 9.70708 26.9734 8.51562 26.9792C6.06007 27.0098 3.58424 26.5845 1.14258 26.1873C0.581638 26.0954 -0.0569856 25.5068 0.00390625 24.6599C0.126128 23.1044 4.86808 19.9343 6.97363 20.0593ZM3.33203 7.64331C3.54854 7.98482 3.6623 8.27935 3.24023 8.42651C3.15971 8.13218 3.22377 7.88212 3.33203 7.64331ZM7.85645 0.878662C8.6064 3.41462 6.3153 4.25661 5.5957 5.84253C5.1985 5.94252 4.79857 6.05128 4.40137 6.15405C4.04859 6.68183 3.55718 7.13775 3.33496 7.64331C2.87107 6.91831 1.87096 5.99272 3.9043 5.79272C3.71826 2.97349 5.23167 1.57867 7.85645 0.878662Z" fill="#0E8784"/>
</svg>
